<svg xmlns="http://www.w3.org/2000/svg" viewBox="0 0 170 170" width="100%" height="100%">
  <path fill="currentColor" d="M150.37 130.25c-2.45 5.66-5.35 10.87-8.71 15.66-4.58 6.53-8.33 11.05-11.22 13.56-4.48 4.12-9.28 6.23-14.42 6.35-3.69 0-8.14-1.05-13.32-3.18-5.19-2.12-9.97-3.17-14.34-3.17-4.58 0-9.49 1.05-14.75 3.17-5.26 2.13-9.5 3.24-12.74 3.35-4.34.13-9.16-1.9-14.46-6.1-3.23-2.63-7.14-7.27-11.73-13.91-6.11-8.8-11-18.78-14.67-29.94-3.67-11.16-5.5-21.65-5.5-31.47 0-14.61 3.73-26.65 11.18-36.13 7.45-9.48 16.7-14.33 27.75-14.56 4.91 0 10.22 1.25 15.93 3.76 5.71 2.51 9.8 3.87 12.27 4.07 2.01 0 6.28-1.46 12.82-4.39 6.54-2.92 12.08-4.22 16.63-3.9 12.37.97 22.38 5.75 30.03 14.34-10.96 6.64-16.32 15.77-16.08 27.39.24 9.07 3.74 16.71 10.5 22.92 6.76 6.2 14.8 9.77 24.12 10.69-2.62 7.73-6.04 15.26-10.27 22.58zM119.22 31.84c0-7.3 2.65-14.36 7.95-21.18 5.3-6.82 11.96-10.66 19.98-11.52.24 1.01.36 1.94.36 2.79 0 7.33-2.73 14.47-8.19 21.42-5.46 6.95-12.19 10.87-20.2 11.76-.12-.86-.18-1.78-.18-2.75z"/>
</svg>
